<svg aria-hidden="true" style="position: absolute; width: 0; height: 0; overflow: hidden;" version="1.1" xmlns="http://www.w3.org/2000/svg" xmlns:xlink="http://www.w3.org/1999/xlink">
<defs>
<symbol id="icon-Vector" viewBox="0 0 32 32">
<path d="M29.712 20.576l2.288-2.288-2.288-2.288-5.712 5.712-13.712-13.712 5.712-5.712-2.288-2.288-2.288 2.288-2.288-2.288-3.424 3.424-2.288-2.288-2.288 2.288 2.288 2.288-3.424 3.424 2.288 2.288-2.288 2.288 2.288 2.288 5.712-5.712 13.712 13.712-5.712 5.712 2.288 2.288 2.288-2.288 2.288 2.288 3.424-3.424 2.288 2.288 2.288-2.288-2.288-2.288 3.424-3.424-2.288-2.288z"></path>
</symbol>
<symbol id="icon-left" viewBox="0 0 32 32">
<path fill="#a6a5a5" style="fill: var(--color1, #a6a5a5)" d="M7.65 18l11.2 11.2-2.85 2.8-16-16 16-16 2.85 2.8-11.2 11.2h24.35v4h-24.35z"></path>
</symbol>
<symbol id="icon-human" viewBox="0 0 32 32">
<path d="M4.364 3.556c0-1.956 1.309-3.556 2.909-3.556s2.909 1.6 2.909 3.556c0 1.956-1.309 3.556-2.909 3.556s-2.909-1.6-2.909-3.556zM0 8.889h8.727l10.182-8.889 1.905 2.667-6.065 5.333h4.16l11.345-8 1.745 2.489-12.364 11.733-0.727 17.778h-2.909l-0.727-17.778-5.091-1.778h-10.182v-3.556z"></path>
</symbol>
<symbol id="icon-power" viewBox="0 0 32 32">
<path d="M15.438 3.688c-1.64 0.212-3.194 0.825-3.85 1.392-3.826 3.331-5.987 7.733-7.108 11.572-0.483 1.626-0.806 3.3-0.965 4.996-0.058 0.693-0.112 1.418-0.012 2.11 0.658 0.785 1.588 1.354 2.452 1.843 1.805 1.022 4.517 2.081 8.162 2.508 2.064 0.242 4.671 0.38 7.075 0.177 2.495-0.212 4.408-0.763 5.401-1.6 1.673-1.409 2.095-3.052 1.942-4.491-0.163-1.548-0.989-2.857-1.82-3.441-1.434-1.005-3.048-1.107-4.57-0.687-1.566 0.434-2.852 1.374-3.46 2.144-0.153 0.194-0.342 0.352-0.556 0.464s-0.448 0.176-0.686 0.188c-0.239 0.012-0.477-0.029-0.7-0.12s-0.425-0.23-0.594-0.408c-0.945-0.994-2.55-1.284-4.702 0.226-0.235 0.165-0.505 0.267-0.786 0.296s-0.564-0.015-0.825-0.129c-0.261-0.114-0.491-0.293-0.67-0.523s-0.302-0.502-0.357-0.794c-0.491-2.593-0.235-5.349 0.218-7.621 0.457-2.276 1.144-4.235 1.649-5.294 0.143-0.3 0.362-0.552 0.633-0.728s0.583-0.27 0.902-0.27c0.319 0 0.631 0.093 0.902 0.27s0.49 0.428 0.633 0.728c0.349 0.731 0.986 1.385 1.728 1.66 0.575-0.382 1.075-0.915 1.48-1.484 0.745-1.045 0.994-2.034 0.663-2.908-0.673-0.253-1.487-0.165-2.179-0.076zM17.985 0.136c0.831 0.168 2.045 0.606 2.631 1.839 1.283 2.701 0.223 5.269-0.914 6.866-0.742 1.042-1.697 2.022-2.808 2.622-0.232 0.127-0.704 0.362-1.248 0.362-1.015 0-2.009-0.486-2.825-1.094-0.155 0.553-0.304 1.161-0.433 1.805-0.255 1.235-0.393 2.494-0.412 3.757 1.808-0.615 3.658-0.55 5.251 0.398 1.198-0.99 2.575-1.712 4.048-2.121 2.233-0.617 4.912-0.532 7.345 1.175 1.743 1.224 3.064 3.53 3.33 6.052 0.278 2.629-0.589 5.504-3.211 7.714-1.851 1.559-4.673 2.161-7.269 2.38-2.688 0.228-5.526 0.072-7.73-0.186-4.084-0.477-7.22-1.678-9.411-2.917-1.437-0.814-3.404-1.938-4.027-3.662-0.421-1.168-0.311-2.586-0.208-3.801 0.137-1.593 0.474-3.582 1.104-5.737 1.257-4.302 3.718-9.392 8.202-13.294 1.379-1.201 3.687-1.946 5.619-2.195 0.996-0.128 2.044-0.146 2.966 0.038z"></path>
</symbol>
<symbol id="icon-location" viewBox="0 0 34 32">
<path fill="none" stroke="none" style="stroke: var(--color2, #f7084c)" stroke-linejoin="miter" stroke-linecap="butt" stroke-miterlimit="4" stroke-width="1.5238" d="M5.079 0.762h23.365c2.384 0 4.317 1.933 4.317 4.317v21.841c0 2.384-1.933 4.317-4.317 4.317h-23.365c-2.384 0-4.317-1.933-4.317-4.317v-21.841c0-2.384 1.933-4.317 4.317-4.317z"></path>
<path d="M16.762 15.788c-0.617 0-1.21-0.245-1.646-0.682s-0.682-1.029-0.682-1.646c0-0.617 0.245-1.21 0.682-1.646s1.029-0.682 1.646-0.682 1.21 0.245 1.646 0.682c0.437 0.437 0.682 1.029 0.682 1.646 0 0.306-0.060 0.608-0.177 0.891s-0.288 0.539-0.505 0.755-0.473 0.388-0.755 0.505c-0.282 0.117-0.585 0.177-0.891 0.177zM16.762 6.942c-1.729 0-3.387 0.687-4.609 1.909s-1.909 2.88-1.909 4.609c0 4.889 6.519 12.106 6.519 12.106s6.518-7.217 6.518-12.106c0-1.729-0.687-3.387-1.909-4.609s-2.88-1.909-4.609-1.909z"></path>
</symbol>
<symbol id="icon-arrow" viewBox="0 0 27 32">
<path d="M22.299 0.116c-0.156-0.001-0.31 0.035-0.453 0.106s-0.274 0.174-0.384 0.305l-2.444 2.898c-0.356 0.425-0.557 0.998-0.557 1.596v2.918l-5.908 7.007c-0.222 0.282-0.342 0.656-0.337 1.041s0.137 0.754 0.367 1.027c0.23 0.273 0.54 0.429 0.865 0.436s0.64-0.136 0.878-0.399l5.908-7.007h2.46c0.504-0.001 0.987-0.239 1.344-0.661l2.444-2.898c0.166-0.196 0.278-0.446 0.324-0.719s0.022-0.555-0.067-0.811c-0.090-0.256-0.241-0.476-0.436-0.63s-0.423-0.237-0.657-0.236h-2.164v-2.567c0-0.774-0.531-1.403-1.183-1.403zM4.235 15.998c0 2.896 0.97 5.673 2.696 7.72s4.068 3.198 6.509 3.198c2.441 0 4.783-1.15 6.509-3.198s2.696-4.825 2.696-7.72c-0.001-0.752-0.062-1.48-0.184-2.186-0.066-0.387-0-0.789 0.183-1.119s0.47-0.559 0.797-0.637c0.326-0.079 0.666-0 0.943 0.217s0.471 0.558 0.537 0.945c0.503 2.926 0.199 5.967-0.869 8.672s-2.842 4.929-5.060 6.344c-2.217 1.415-4.76 1.945-7.252 1.511s-4.798-1.808-6.58-3.919-2.941-4.847-3.309-7.801c-0.367-2.955 0.077-5.971 1.269-8.602s3.066-4.737 5.345-6.006c2.28-1.269 4.843-1.632 7.31-1.037 0.323 0.082 0.606 0.312 0.787 0.64s0.246 0.727 0.18 1.111c-0.066 0.384-0.256 0.722-0.531 0.94s-0.61 0.3-0.935 0.226c-1.337-0.323-2.719-0.29-4.044 0.098s-2.561 1.12-3.618 2.145c-1.057 1.024-1.909 2.314-2.493 3.777s-0.888 3.061-0.888 4.68zM13.209 11.042c-0.803 0.052-1.576 0.378-2.227 0.938s-1.152 1.331-1.443 2.22c-0.291 0.889-0.36 1.859-0.199 2.794s0.547 1.794 1.109 2.475c0.563 0.682 1.279 1.156 2.063 1.368s1.603 0.15 2.359-0.177c0.756-0.327 1.416-0.905 1.902-1.665s0.777-1.67 0.838-2.621c0.025-0.394 0.18-0.76 0.432-1.018s0.58-0.386 0.912-0.357c0.332 0.029 0.641 0.214 0.858 0.513s0.326 0.688 0.301 1.082c-0.096 1.523-0.561 2.98-1.338 4.197s-1.833 2.143-3.043 2.667-2.52 0.622-3.776 0.284c-1.255-0.338-2.402-1.098-3.303-2.189s-1.517-2.467-1.775-3.963c-0.258-1.496-0.147-3.048 0.32-4.471s1.27-2.656 2.312-3.552c1.043-0.896 2.281-1.416 3.566-1.498 0.332-0.021 0.658 0.115 0.906 0.379s0.397 0.634 0.415 1.028c0.018 0.394-0.097 0.781-0.32 1.075s-0.534 0.471-0.867 0.492z"></path>
</symbol>
<symbol id="icon-watch" viewBox="0 0 34 32">
<path d="M16.762 6.942c5.143 0 9.312 4.169 9.312 9.312s-4.169 9.312-9.312 9.312c-5.143 0-9.312-4.169-9.312-9.312s4.169-9.312 9.312-9.312zM16.762 10.667c-0.247 0-0.484 0.098-0.659 0.273s-0.273 0.411-0.273 0.659v4.656c0 0.247 0.098 0.484 0.273 0.658l2.794 2.794c0.176 0.17 0.411 0.264 0.655 0.261s0.478-0.1 0.65-0.273c0.173-0.173 0.271-0.406 0.273-0.65s-0.092-0.479-0.261-0.655l-2.521-2.521v-4.271c0-0.247-0.098-0.484-0.273-0.659s-0.411-0.273-0.658-0.273z"></path>
<path fill="none" stroke="none" style="stroke: var(--color2, #f7084c)" stroke-linejoin="miter" stroke-linecap="butt" stroke-miterlimit="4" stroke-width="1.5238" d="M5.079 0.762h23.365c2.384 0 4.317 1.933 4.317 4.317v21.841c0 2.384-1.933 4.317-4.317 4.317h-23.365c-2.384 0-4.317-1.933-4.317-4.317v-21.841c0-2.384 1.933-4.317 4.317-4.317z"></path>
</symbol>
<symbol id="icon-phone" viewBox="0 0 34 32">
<path d="M11.752 15.127c1.341 2.635 3.501 4.786 6.137 6.137l2.049-2.049c0.251-0.251 0.624-0.335 0.95-0.224 1.043 0.345 2.17 0.531 3.324 0.531 0.512 0 0.931 0.419 0.931 0.931v3.25c0 0.512-0.419 0.931-0.931 0.931-8.744 0-15.831-7.087-15.831-15.831 0-0.512 0.419-0.931 0.931-0.931h3.259c0.512 0 0.931 0.419 0.931 0.931 0 1.164 0.186 2.281 0.531 3.324 0.102 0.326 0.028 0.689-0.233 0.95l-2.049 2.049z"></path>
<path fill="none" stroke="none" style="stroke: var(--color2, #f7084c)" stroke-linejoin="miter" stroke-linecap="butt" stroke-miterlimit="4" stroke-width="1.5238" d="M5.079 0.762h23.365c2.384 0 4.317 1.933 4.317 4.317v21.841c0 2.384-1.933 4.317-4.317 4.317h-23.365c-2.384 0-4.317-1.933-4.317-4.317v-21.841c0-2.384 1.933-4.317 4.317-4.317z"></path>
</symbol>
<symbol id="icon-right" viewBox="0 0 34 32">
<path fill="#f5f5f5" style="fill: var(--color3, #f5f5f5)" d="M24.864 14l-11.2-11.2 2.85-2.8 16 16-16 16-2.85-2.8 11.2-11.2h-24.35v-4h24.35z"></path>
</symbol>
<symbol id="icon-burger" viewBox="0 0 48 32">
<path fill="#fff" style="fill: var(--color1, #fff)" d="M2.667 0h42.667c1.473 0 2.667 1.194 2.667 2.667s-1.194 2.667-2.667 2.667h-42.667c-1.473 0-2.667-1.194-2.667-2.667s1.194-2.667 2.667-2.667z"></path>
<path fill="#fff" style="fill: var(--color1, #fff)" d="M2.667 13.333h42.667c1.473 0 2.667 1.194 2.667 2.667s-1.194 2.667-2.667 2.667h-42.667c-1.473 0-2.667-1.194-2.667-2.667s1.194-2.667 2.667-2.667z"></path>
<path fill="#fff" style="fill: var(--color1, #fff)" d="M2.667 26.667h42.667c1.473 0 2.667 1.194 2.667 2.667s-1.194 2.667-2.667 2.667h-42.667c-1.473 0-2.667-1.194-2.667-2.667s1.194-2.667 2.667-2.667z"></path>
</symbol>
<symbol id="icon-bird" viewBox="0 0 53 32">
<path fill="#fff" style="fill: var(--color1, #fff)" d="M0 4.824l4.733-4.824 21.933 22.352 21.933-22.352 4.733 4.824-26.667 27.176-26.667-27.176z"></path>
</symbol>
<symbol id="icon-round" viewBox="0 0 32 32">
<path fill="#fff" style="fill: var(--color1, #fff)" d="M29.068 8.566c-0.414-0.94-0.958-1.817-1.616-2.606l-3.486 3.486c0.816 0.483 1.777 0.66 2.712 0.498s1.781-0.65 2.388-1.378zM22.55 8.032l3.486-3.486c-0.788-0.658-1.665-1.201-2.604-1.616-0.729 0.607-1.218 1.454-1.379 2.389s0.016 1.897 0.499 2.713zM20 6c0 1.296 0.412 2.496 1.11 3.476l-1.61 1.61-6.976-6.978c1.254-0.911 2.685-1.547 4.201-1.868s3.082-0.32 4.597 0.004c-0.855 1.065-1.322 2.39-1.322 3.756zM20.914 12.5l1.61-1.61c0.98 0.7 2.18 1.11 3.476 1.11 1.366 0 2.691-0.465 3.756-1.32 0.161 0.749 0.243 1.523 0.244 2.32 0 2.42-0.782 4.66-2.108 6.478l-6.978-6.978zM26.568 20.982l-7.068-7.068-1.21 1.21c2.080 2.371 3.356 5.339 3.646 8.48 1.76-0.486 3.344-1.402 4.632-2.622zM8.394 10.064c0.486-1.76 1.4-3.344 2.62-4.632l7.072 7.068-1.21 1.21c-2.371-2.080-5.341-3.356-8.482-3.646zM5 12c-0.796 0-1.559 0.316-2.121 0.879s-0.879 1.326-0.879 2.121v2c0 3.448 1.37 6.754 3.808 9.192s5.745 3.808 9.192 3.808h2c0.796 0 1.559-0.316 2.121-0.879s0.879-1.326 0.879-2.121v-2c0-3.448-1.37-6.754-3.808-9.192s-5.745-3.808-9.192-3.808h-2zM8.792 18.792c0.093-0.093 0.203-0.167 0.325-0.217s0.252-0.076 0.383-0.076c0.132 0 0.262 0.026 0.383 0.076s0.232 0.124 0.325 0.217l3 3c0.093 0.093 0.167 0.203 0.217 0.325s0.076 0.252 0.076 0.383c0 0.131-0.026 0.262-0.076 0.383s-0.124 0.232-0.217 0.325c-0.093 0.093-0.203 0.167-0.325 0.217s-0.252 0.076-0.383 0.076c-0.131 0-0.262-0.026-0.383-0.076s-0.232-0.124-0.325-0.217l-3-3c-0.093-0.093-0.167-0.203-0.217-0.325s-0.076-0.252-0.076-0.383 0.026-0.262 0.076-0.383c0.050-0.121 0.124-0.232 0.217-0.325z"></path>
</symbol>
<symbol id="icon-goal_bird" viewBox="0 0 40 32">
<path fill="#fff" style="fill: var(--color1, #fff)" d="M14.193 31.579l-14-14.8 3.5-3.7 10.5 11.1 22.535-23.823 3.5 3.7-26.035 27.523z"></path>
</symbol>
<symbol id="icon-bird-top" viewBox="0 0 53 32">
<path fill="#fff" style="fill: var(--color1, #fff)" d="M53.333 27.176l-4.733 4.824-21.933-22.352-21.933 22.352-4.733-4.824 26.667-27.176 26.667 27.176z"></path>
</symbol>
</defs>
</svg>
